<svg xmlns="http://www.w3.org/2000/svg" viewBox="0 0 64 64" fill="none">
  <!-- 人体轮廓简图 -->
  <path d="M32 8c-2 0-3.5 1.5-3.5 3.5S30 15 32 15s3.5-1.5 3.5-3.5S34 8 32 8z" stroke="#4A7C59" stroke-width="2" fill="none"/>
  <!-- 头部 -->
  <circle cx="32" cy="12" r="6" stroke="#4A7C59" stroke-width="2" fill="none"/>
  <!-- 颈部 -->
  <path d="M32 18v4" stroke="#4A7C59" stroke-width="2"/>
  <!-- 躯干 -->
  <path d="M32 22c-8 0-12 4-12 14s4 14 12 14 12-6 12-14-4-14-12-14z" stroke="#4A7C59" stroke-width="2" fill="none"/>
  <!-- 左手 -->
  <path d="M20 28c-4 2-8 6-8 12" stroke="#4A7C59" stroke-width="2" stroke-linecap="round"/>
  <!-- 右手 -->
  <path d="M44 28c4 2 8 6 8 12" stroke="#4A7C59" stroke-width="2" stroke-linecap="round"/>
  <!-- 左腿 -->
  <path d="M26 50l-4 12" stroke="#4A7C59" stroke-width="2" stroke-linecap="round"/>
  <!-- 右腿 -->
  <path d="M38 50l4 12" stroke="#4A7C59" stroke-width="2" stroke-linecap="round"/>
  <!-- 针灸穴位点 - 多个小圆点 -->
  <circle cx="32" cy="32" r="3" fill="#4A7C59"/>
  <!-- 针灸针 -->
  <path d="M32 20l-3-10" stroke="#4A7C59" stroke-width="1.5" stroke-linecap="round"/>
  <circle cx="29" cy="8" r="2" fill="#4A7C59"/>
  <!-- 远处穴位点 -->
  <circle cx="24" cy="36" r="2" fill="#4A7C59"/>
  <circle cx="40" cy="36" r="2" fill="#4A7C59"/>
  <circle cx="32" cy="44" r="2" fill="#4A7C59"/>
</svg>
