<svg xmlns="http://www.w3.org/2000/svg" viewBox="0 0 64 64" fill="none">
  <!-- 聊天气泡 -->
  <path d="M8 16c0-4 4-8 8-8h32c4 0 8 4 8 8v24c0 4-4 8-8 8H20l-8 8v-8c0-4 4-8 8-8H16c-4 0-8-4-8-8V16z" stroke="#4A7C59" stroke-width="2.5" fill="none"/>
  <!-- AI 头部 -->
  <circle cx="24" cy="28" r="6" stroke="#4A7C59" stroke-width="2" fill="none"/>
  <!-- AI 身体/信号 -->
  <path d="M18 38c2-2 6-2 8 0" stroke="#4A7C59" stroke-width="2" stroke-linecap="round"/>
  <path d="M20 42c3-2 7-2 10 0" stroke="#4A7C59" stroke-width="2" stroke-linecap="round"/>
  <!-- 消息点 -->
  <circle cx="42" cy="26" r="2" fill="#4A7C59"/>
  <circle cx="46" cy="32" r="2" fill="#4A7C59"/>
  <circle cx="42" cy="38" r="2" fill="#4A7C59"/>
</svg>
