<svg xmlns="http://www.w3.org/2000/svg" viewBox="0 0 24 24" fill="none" stroke="#4A7C59" stroke-width="1.5" stroke-linecap="round" stroke-linejoin="round">
  <!-- 中间三指（诊脉） -->
  <!-- 食指 -->
  <path d="M11 3c1 0 1.5 1 1.5 2.5S12 8 11 8s-1-1.5-1-3c0-1.5.5-2 1-2z"/>
  <!-- 中指 -->
  <path d="M12 2c1.5 0 2 1.5 2 3s-.5 4-2 4s-2-1.5-2-3s.5-4 2-4z"/>
  <!-- 无名指 -->
  <path d="M13 3c1 0 1.5 1 1.5 2.5S14 8 13 8s-1-1.5-1-3c0-1.5.5-2 1-2z"/>
  <!-- 手掌 -->
  <path d="M10 8c0 1 1 2 2 2.5V14c0 1.5-1 3-2 3s-2-1.5-2-3V10.5C8 10 9 8 10 8z"/>
  <path d="M14 8c0 1 1 2 2 2.5V14c0 1.5-1 3-2 3s-2-1.5-2-3V10.5c1-.5 2-2 2-2z"/>
  <!-- 脉诊符号 -->
  <path d="M7 16c.5 1 1.5 1.5 2.5 1.5s2-.5 2.5-1.5" />
  <path d="M10 18c.5.5 1.5.5 2 0s1.5-.5 2 0" />
</svg>