<svg xmlns="http://www.w3.org/2000/svg" viewBox="0 0 64 64" fill="none">
  <!-- 茶杯 -->
  <path d="M12 20h32c2.2 0 4 1.8 4 4v20c0 2.2-1.8 4-4 4H12c-2.2 0-4-1.8-4-4V24c0-2.2 1.8-4 4-4z" stroke="#4A7C59" stroke-width="2.5" fill="none"/>
  <!-- 茶杯把手 -->
  <path d="M44 24c3 0 5 2 5 5s-2 6-5 6" stroke="#4A7C59" stroke-width="2.5" fill="none"/>
  <!-- 茶杯边缘 -->
  <path d="M10 20c0-1.1 1.8-2 5-2h34c3.2 0 5 .9 5 2" stroke="#4A7C59" stroke-width="2.5" fill="none"/>
  <!-- 茶水 -->
  <path d="M14 24c0 .6.7 1.2 2 1.5 2.5.6 6.5.5 10 .5h12c3.5 0 7.5.1 10-.5 1.3-.3 2-.9 2-1.5" stroke="#4A7C59" stroke-width="2" fill="none"/>
  <!-- 茶气 -->
  <path d="M22 10c0-2 1-3 2-3s2 1 2 3c0 1-.5 2-1.5 2.5" stroke="#4A7C59" stroke-width="1.5" stroke-linecap="round" fill="none"/>
  <path d="M30 8c0-2 1-3 2-3s2 1 2 3c0 1-.5 2-1.5 2.5" stroke="#4A7C59" stroke-width="1.5" stroke-linecap="round" fill="none"/>
  <path d="M38 10c0-2 1-3 2-3s2 1 2 3c0 1-.5 2-1.5 2.5" stroke="#4A7C59" stroke-width="1.5" stroke-linecap="round" fill="none"/>
</svg>
