<?xml version="1.0" standalone="no"?><!DOCTYPE svg PUBLIC "-//W3C//DTD SVG 1.1//EN" "http://www.w3.org/Graphics/SVG/1.1/DTD/svg11.dtd"><svg t="1774677698196" class="icon" viewBox="0 0 1024 1024" version="1.1" xmlns="http://www.w3.org/2000/svg" p-id="8326" xmlns:xlink="http://www.w3.org/1999/xlink" width="200" height="200"><path d="M348.2 460.3l-17-0.7c-2.3-0.1-56.7-2.8-112.4-36.6-33-19.9-59.6-46.6-79.1-79.2-24.2-40.3-37.3-89.8-39.1-146.9l-0.5-14.6 14.6-0.8c2.2-0.1 53.8-2.6 108.5 28.9 32.1 18.5 58.6 44.9 78.7 78.4 24.7 41.2 39.9 93.2 44.9 154.6l1.4 16.9zM131.3 212c6.3 85 40.5 147.1 101.9 184.8 31.4 19.3 62.9 27.3 81.8 30.6-11.2-92.3-47.1-156.5-106.9-191-30.4-17.6-59.8-22.9-76.8-24.4zM422.7 507.5l-9-13.2c-1.2-1.7-28.5-42.1-51.4-96.5-31.5-74.8-38.9-137.3-21.8-185.7 21.2-60.3 60-91.4 88.9-106.8 31.4-16.8 58-19.2 59.1-19.3l38.5-3.2-26.4 28.2c-0.1 0.1-13.2 14.8-21.2 40.4-10.7 34-7.8 70.5 8.5 108.5 25 58.1 32.4 98 24.8 133.7-7.7 36.1-31.6 68.2-77.4 104.1l-12.6 9.8z m34.6-382.4c-4.8 2-9.8 4.3-15 7.2-34.5 18.9-59.3 49-73.6 89.7-28.9 82 36.5 201.3 61 241.6 64.7-54.8 70.6-98.8 30.7-191.8-24.3-56.6-18.3-102.5-9.1-131 1.8-5.7 3.9-11 6-15.7zM593.3 647.5l-7.6-14.1c-1-1.8-24.1-44.7-41.4-101.2-23.8-77.6-24.8-140.5-2.9-187 27.2-57.9 69-84.8 99.2-97.3 32.9-13.5 59.6-13.2 60.8-13.2l38.6 0.7-29 25.6c-0.1 0.1-14.6 13.4-25.2 38-14.1 32.8-14.9 69.4-2.5 108.8 19 60.3 22.3 100.8 11.1 135.5-11.3 35.2-38.3 64.7-87.5 95.7l-13.6 8.5z m73.2-377c-4.9 1.5-10.2 3.3-15.7 5.6-36.2 15.3-63.9 42.8-82.3 81.8-37.1 78.8 15.9 204 36.2 246.5 69.9-48 80.3-91.2 49.9-187.7-18.5-58.7-7.9-103.8 4.2-131.3 2.5-5.4 5.1-10.4 7.7-14.9zM751.2 825.4l-6.7-14.6c-0.9-1.9-21-46.3-34.4-103.8-18.5-79.1-15.2-141.9 9.8-186.7 31.1-55.9 74.6-80 105.6-90.3 33.8-11.3 60.4-9.2 61.5-9.1l38.5 3.3-30.6 23.5c-0.1 0.1-15.5 12.3-27.7 36.2-16.3 31.7-19.6 68.2-9.9 108.4 14.8 61.4 15.4 102.1 1.9 135.9-13.7 34.3-42.6 61.9-93.8 89.5l-14.2 7.7z m98.6-371.2c-5 1.1-10.4 2.6-16 4.5-37.2 12.8-66.7 38.3-87.7 76-42.4 76.1 2 204.6 19.4 248.4 73-43.2 86.3-85.5 62.6-183.9-14.4-59.8-0.8-104.1 13.2-130.7 2.7-5.1 5.6-9.9 8.5-14.3z" fill="#3a6247" p-id="8327"></path><path d="M798.8 946.8C744.4 798 618.6 673 522.5 594.4 418 508.8 325.6 458.3 324.7 457.8l14.3-26.4c3.9 2.1 95.9 52.4 202.6 139.8C604.4 622.6 659 676.1 704 730.3c56.5 68.1 98 137.5 123.1 206.2l-28.3 10.3z" fill="#3a6247" p-id="8328"></path><path d="M331.8 507.8m-31.1 0a31.1 31.1 0 1 0 62.2 0 31.1 31.1 0 1 0-62.2 0Z" p-id="8329" fill="#3a6247"></path><path d="M394.1 538.7m-31.1 0a31.1 31.1 0 1 0 62.2 0 31.1 31.1 0 1 0-62.2 0Z" p-id="8330" fill="#3a6247"></path><path d="M485.9 629.8m-31.1 0a31.1 31.1 0 1 0 62.2 0 31.1 31.1 0 1 0-62.2 0Z" p-id="8331" fill="#3a6247"></path><path d="M548.2 660.7m-31.1 0a31.1 31.1 0 1 0 62.2 0 31.1 31.1 0 1 0-62.2 0Z" p-id="8332" fill="#3a6247"></path><path d="M619.1 763.5m-31.1 0a31.1 31.1 0 1 0 62.2 0 31.1 31.1 0 1 0-62.2 0Z" p-id="8333" fill="#3a6247"></path><path d="M681.4 794.4m-31.1 0a31.1 31.1 0 1 0 62.2 0 31.1 31.1 0 1 0-62.2 0Z" p-id="8334" fill="#3a6247"></path></svg>