<?xml version="1.0" standalone="no"?><!DOCTYPE svg PUBLIC "-//W3C//DTD SVG 1.1//EN" "http://www.w3.org/Graphics/SVG/1.1/DTD/svg11.dtd"><svg t="1774677474301" class="icon" viewBox="0 0 1050 1024" version="1.1" xmlns="http://www.w3.org/2000/svg" p-id="3300" xmlns:xlink="http://www.w3.org/1999/xlink" width="205.078125" height="200"><path d="M1049.894944 711.641284c-1.455999-24.389975-12.966987-47.222953-32.435967-64.319935-24.075976-21.149979-58.167941-31.869968-93.566906-29.371971-29.94997 2.095998-57.941942 13.418987-78.829921 31.882968-22.217978 19.64498-34.569965 46.105954-34.355965 73.181927-9.012991-47.963952-16.895983-96.164903-23.059977-144.542855q-3.902996-30.753969-6.714994-61.582938a91.344908 91.344908 0 0 0 34.908965 30.12597 117.479882 117.479882 0 0 0 52.719947 11.862988 148.483851 148.483851 0 0 0 50.825949-9.276991c64.544935-23.610976 102.516897-83.950916 86.461913-137.374862-6.953993-23.096977-23.334977-42.100958-46.129953-53.511946-29.67497-14.849985-67.394932-15.802984-103.495896-2.597997-37.506962 13.694986-66.039934 39.79196-80.18592 69.71693a823.994171 823.994171 0 0 1 0-20.08398c0.176-14.409986 0.752999-28.870971 1.944998-43.155957a417.73658 417.73658 0 0 1 5.585995-42.778957 241.009758 241.009758 0 0 1 11.409988-41.548958c0.577999-1.706998 1.368999-3.313997 2.059998-5.019995s1.404999-3.314997 2.157998-4.959995l0.39-0.789999a80.762919 80.762919 0 0 0 27.614972 4.819995 89.47491 89.47491 0 0 0 30.552969-5.509994c31.569968-11.447988 58.833941-39.35296 74.799925-76.570923 12.138988-28.305972 16.318984-59.096941 11.649988-86.612913-5.472994-32.635967-23.134977-58.632941-48.439951-71.460928-20.36098-10.31899-44.172956-11.435988-67.031933-3.137997-31.581968 11.446988-58.845941 39.35196-74.799924 76.569923-12.150988 28.305972-16.318984 59.097941-11.661989 86.675913 5.472994 32.635967 23.134977 58.632941 48.439952 71.460928a83.978916 83.978916 0 0 0 5.084995 2.347997l-0.201 0.3c-0.979999 1.581998-1.882998 3.189997-2.836997 4.782995s-1.945998 3.175997-2.749998 4.845995a248.46475 248.46475 0 0 0-17.069982 41.121959 429.560568 429.560568 0 0 0-11.297989 43.092957c-3.087997 14.535985-5.522994 29.171971-7.530993 43.857956-4.104996 29.38597-6.564993 58.921941-8.159991 88.482911q-0.414 8.059992-0.74 16.129983a125.525874 125.525874 0 0 0-38.372961-36.778963c-27.452972-16.932983-59.87594-22.342978-88.796911-14.798985-25.104975 6.564993-45.766954 22.267978-58.017941 44.247956-13.556986 24.288976-15.527984 53.159947-5.535995 81.264918 9.099991 25.631974 27.401972 47.937952 51.465949 62.762937a119.57588 119.57588 0 0 0 62.359937 18.099982 104.876895 104.876895 0 0 0 26.435973-3.325997 92.989906 92.989906 0 0 0 49.56995-31.732968c0.979999 43.356956 3.125997 86.612913 6.113994 129.919869q2.923997 41.924958 6.915993 83.812916-12.326988-9.56499-24.514975-19.469981c-35.761964-29.145971-70.494929-60.251939-104.487895-92.172907s-67.255932-65.021935-99.967899-98.649901q-34.669965-35.711964-68.662931-72.315927a252.305746 252.305746 0 0 0 34.732965-22.505977c32.297968-24.966975 54.314945-55.369944 63.704936-87.930912 21.489978-74.611925-23.949976-149.37485-29.209971-157.684841l-18.829981-29.63697-32.108968 14.146985a236.489762 236.489762 0 0 0-45.188954 27.677973c-32.297968 24.966975-54.326945 55.369944-63.703936 87.930911-6.187994 21.489978-6.815993 42.979957-4.468996 62.899937q-13.455986-15.262985-26.836973-30.626969-17.573982-20.27298-35.146964-40.719959l15.439984-6.803994a234.908764 234.908764 0 0 0 45.188955-27.615972c32.296968-24.966975 54.326945-55.369944 63.703936-87.867911 21.489978-74.611925-23.949976-149.37485-29.209971-157.684842l-18.828981-29.63697-32.109968 14.146986a236.489762 236.489762 0 0 0-45.187954 27.615972c-32.297968 24.966975-54.314945 55.368944-63.704936 87.929912-11.823988 41.071959-3.375997 82.181917 7.531992 112.244887q-20.22198-24.313976-40.16796-48.791951l9.338991 0.627999 8.209992-33.239966c2.371998-9.60199 21.915978-95.699904-21.829978-159.02684-19.242981-27.866972-49.84595-49.26995-88.519911-61.909938a230.175768 230.175768 0 0 0-51.629948-10.719989L26.712973 0.05 18.589981 33.213967c-2.371998 9.61499-21.915978 95.712904 21.816978 159.04084 19.242981 27.879972 49.85795 49.33195 88.532911 61.883937a230.037769 230.037769 0 0 0 51.628948 10.71999l17.158983 1.154998q16.430983 23.699976 33.100967 47.259953c-27.941972-11.296989-64.218935-19.39298-101.399898-9.551991C55.695944 323.239675 17.499982 403.301594 13.380987 412.363585L0 441.862556l25.694974 19.71998c6.589993 5.019995 57.741942 42.790957 118.232881 42.790957a135.077864 135.077864 0 0 0 34.606965-4.379996c64.557935-17.084983 101.876898-80.587919 112.972887-102.215897q14.560985 19.95898 29.25997 39.81696 25.682974 34.569965 51.841948 68.799931c-29.008971-13.480986-69.96793-25.355974-112.119887-14.209986-73.719926 19.51998-111.917887 99.5799-116.034883 108.642891l-13.380987 29.49897 25.694974 19.71998c6.589993 5.019995 57.741942 42.790957 118.231881 42.790957a135.115864 135.115864 0 0 0 34.657966-4.379995c73.733926-19.51998 111.930887-99.5799 116.035883-108.654891l1.442998-3.175997q33.779966 42.678957 68.624931 84.679915c30.351969 36.476963 61.381938 72.477927 93.453906 107.749891S654.389342 838.899156 689.299307 872.177123c17.484982 16.619983 35.397964 32.937967 54.088945 48.703951s38.071962 31.054969 58.757941 45.414954c10.35599 7.166993 21.049979 14.095986 32.234968 20.660979a349.286649 349.286649 0 0 0 35.359964 18.339982 235.459763 235.459763 0 0 0 40.469959 14.045986 154.571845 154.571845 0 0 0 48.615952 4.267995l-9.564991-87.390912a66.779933 66.779933 0 0 1-21.677978-0.250999 126.379873 126.379873 0 0 1-13.091987-2.735998c-2.271998-0.652999-4.531995-1.255999-6.853993-1.983998-1.154999-0.376-2.296998-0.702999-3.464996-1.103999l-3.501997-1.255998a272.201726 272.201726 0 0 1-28.455971-12.049988q-10.819989-5.271995-21.628979-11.359989l-1.932998-7.669992-5.108994-20.987979q-5.019995-21.037979-9.789991-42.188958-8.975991-39.94196-16.971983-80.147919a96.654903 96.654903 0 0 0 26.485974 37.343963c21.791978 19.142981 51.804948 29.72397 83.537916 29.72397q5.019995 0 10.04199-0.351c29.93797-2.095998 57.941942-13.418987 78.81692-31.883968 23.447976-20.710979 35.925964-49.029951 34.230966-77.674922zM884.201111 432.723565a66.339933 66.339933 0 0 1 22.669977-4.267996 37.493962 37.493962 0 0 1 16.317983 3.188997c1.769998 0.890999 3.979996 2.309998 4.506996 4.053996 2.221998 7.405993-10.19299 27.678972-36.402964 37.255962-17.572982 6.401994-31.945968 4.581995-38.91296 1.066999-1.756998-0.877999-3.978996-2.296998-4.505996-4.041996-2.246998-7.467992 10.16799-27.689972 36.326964-37.255962zM828.895166 137.739861c10.04199-23.347977 25.217975-32.635967 30.12597-32.635967 3.953996 3.275997 10.706989 24.689975-1.468999 53.059947-10.04199 23.346977-25.217975 32.635967-30.125969 32.635967-3.953996-3.288997-10.706989-24.703975 1.468998-53.071947z m-147.329852 438.448559c-0.501999 0.902999-2.032998 3.664996-7.342992 5.019995-7.405993 1.933998-16.919983 0-25.430975-5.296994-15.489984-9.53999-22.142978-26.547973-17.573982-34.832965 0.501999-0.903999 2.045998-3.652996 7.355993-5.020995a23.422976 23.422976 0 0 1 5.949994-0.727999 38.083962 38.083962 0 0 1 19.48098 6.024993c15.539984 9.53999 22.179978 26.599973 17.560982 34.833965zM447.59955 414.146583c4.644995-16.117984 16.506983-30.12697 29.10997-41.009958 5.095995 16.970983 7.932992 36.515963 3.074997 53.398946-4.644995 16.091984-16.506983 30.12597-29.09697 40.983959-5.120995-17.020983-7.945992-36.514963-3.087997-53.372947zM107.549892 145.909853C97.507902 131.299868 94.169905 111.202888 93.879906 92.949907c14.849985 5.611994 30.527969 14.498985 40.105959 28.369971 10.04199 14.609985 13.380987 34.706965 13.656986 52.970947-15.225985-5.849994-30.778969-14.899985-40.092959-28.380972z m208.97479 79.80992c4.644995-16.092984 16.506983-30.12697 29.09697-40.984959 5.121995 17.008983 7.945992 36.514963 3.087997 53.372946-4.643995 16.104984-16.493983 30.12697-29.09697 40.996959-5.120995-17.020983-7.932992-36.527963-3.087997-53.385946zM157.709841 421.086576c-15.890984 4.204996-34.229966 0-49.920949-6.363993 11.171989-13.895986 25.995974-27.740972 42.514957-32.109968 15.891984-4.216996 34.230966 0 49.92195 6.364994-11.284989 14.058986-26.121974 27.803972-42.515958 32.109967z m131.073869 188.413811c-15.903984 4.204996-34.229966 0-49.92095-6.363994 11.221989-13.845986 25.995974-27.652972 42.502957-32.071967 15.903984-4.204996 34.229966 0 49.92095 6.363993-11.271989 14.020986-26.109974 27.766972-42.502957 32.109968z m642.351353 130.295869c-15.991984 1.129999-28.066972-4.054996-34.016965-9.289991-2.095998-1.844998-4.631995-4.693995-4.819996-7.844992-0.49-8.221992 14.133986-21.727978 37.305963-23.346976a57.870942 57.870942 0 0 1 4.367996-0.164c13.807986 0 24.251976 4.707995 29.64997 9.45199 2.095998 1.832998 4.630995 4.694995 4.819995 7.845992 0.489 8.259992-14.159986 21.765978-37.306963 23.384977z" p-id="3301" fill="#3A6247"></path></svg>