<?xml version="1.0" standalone="no"?><!DOCTYPE svg PUBLIC "-//W3C//DTD SVG 1.1//EN" "http://www.w3.org/Graphics/SVG/1.1/DTD/svg11.dtd"><svg t="1774677730633" class="icon" viewBox="0 0 1024 1024" version="1.1" xmlns="http://www.w3.org/2000/svg" p-id="11220" xmlns:xlink="http://www.w3.org/1999/xlink" width="200" height="200"><path d="M896.6 156.9c-45.1-34-90.3-48.8-134.6-44.1-37.1 3.9-60.4 19.9-81 34-19.7 13.6-35.3 24.3-64.6 26.9-15.7 1.4-32.3 0.1-47.1-1-11.8-0.9-22.1-1.7-31.1-1.1-14.3 0.9-23.8 5.6-30 11.3-43.9-32.4-118.9-56.3-171.7-59.8-33.1-2.2-76 17-131 58.7-37.2 28.2-66.5 56.5-67.7 57.7l-28.4 27.6 32.6 22.5c36 24.8 72.7 37.4 109.3 37.4 1.6 0 3.3 0 4.9-0.1 38.6-1.2 62.3-16 83.3-29 18-11.2 35-21.8 65.1-26.6 8.1-1.3 16.3-2.1 24.3-2.5-5.6 9.7-13.1 21.8-23.2 36.6-11.5 16.9-23.1 32.5-31.1 43.1-34.3 2.1-123.4 11.6-182.9 54.4-37.3 26.8-65.3 62.7-78.7 101.1-14.8 42.1-10.4 84.1 12 115.3 22 30.6 59.6 48.1 103.3 48.1h2.2c30.9-0.4 63.2-9.2 93.3-25.3-13.7 18.9-22.3 37.5-25.9 55.5-9.1 45.8-3.4 92 16 130.1 9.9 19.5 22.8 35.9 38.5 48.8 16.9 13.9 36 23.1 56.9 27.2 8.2 1.6 16.4 2.4 24.6 2.4 12.8 0 25.6-2 38.3-5.9 19.4-6 37.7-16.2 54.2-30.4 32.5-27.8 55.3-68.4 64.4-114.2 7.8-39.2 0-90-23.1-151-16.4-43.2-34.7-76-35.4-77.4l-9-16.1c5.9-19.5 12.3-41.7 18.3-64.8 9.4-35.7 15.9-65.1 20.2-89.4 3.3 5.7 6.7 11.8 10.2 18.4 21.9 40.6 39.2 79.9 42.8 88.2-2.3 14.6-5.1 35.3-6.9 58.3-4.9 62.6 0.3 108 15.7 138.6 17.8 35.3 45.7 63.4 78.4 78.9 18.1 8.6 37 12.9 55.4 12.9 17.4 0 34.2-3.9 49.5-11.6 31.5-15.9 53.8-47 61.2-85.2 6.9-35.6 0.9-74.6-17-110-15.8-31.3-51.5-61.8-109.1-93.3-39.5-21.6-74.9-35.6-76.4-36.2l-1.3-0.5c-8.6-18.8-21.8-46.3-37.2-74.6-6.1-11.3-12-21.5-17.6-30.7 29.7 12.3 59.8 20.5 86.5 23.3 2.6 0.3 5.2 0.4 7.9 0.4 33.1 0 73.8-20.7 127-64.5 38-31.3 68.1-62.9 69.4-64.2l25-26.4-28.7-21.8zM419.3 476.7c5-37.1 5.3-70.5 5.1-86.1 8.9-11.6 22.5-29.9 36.3-50.2 21.7-32 34.1-54.9 41.1-71.8h0.4c2.2 6.5 8.8 39.4-23.3 160.9-11 41.9-23.3 81.3-31.4 106.2-13.5 8.5-29.3 19-45.6 31.1-3.3 2.5-6.5 4.9-9.7 7.4 12.8-25.7 21.9-58.3 27.1-97.5zM394.4 207c-43.1 7-68.6 22.8-89.1 35.6-18 11.2-29.8 18.6-51 19.2-12.3 0.4-24.7-1.6-37.3-6 8.5-7.2 18.2-15 28.4-22.7 59.1-44.7 82.8-45.5 87-45.3 24.7 1.6 52.1 8.3 76.9 17.2-4.9 0.6-9.9 1.2-14.9 2z m-83.7 361c-25.4 18.3-54.9 28.9-81 29.3-12.6 0.2-35.6-2.1-47.7-19s-6.9-39.4-2.8-51.3c8.6-24.6 28.1-49.1 53.6-67.4 34.5-24.8 86.6-34.9 121.2-39.1-0.6 13.8-1.8 30.4-4.1 47.7-7 50.5-21.2 86.9-39.2 99.8z m211.5 174c-6 30.5-20.7 57-41.3 74.6-18.2 15.6-38.8 22.1-58 18.3-19.2-3.8-35.7-17.7-46.6-39.1-12.3-24.2-15.7-54.3-9.7-84.8 4.5-22.8 32.4-54.8 76.5-87.8 15.7-11.8 31.3-22 44.1-30 19.6 42.8 43.2 107.6 35 148.8z m155.5-214c0.8-10.2 1.8-20 2.9-28.8 8.7 4.2 18.2 9.1 28 14.4 60 32.9 76.1 55.3 80.2 63.5 20.6 40.8 14.5 87.1-13.3 101.2-27.8 14-68.7-8.6-89.3-49.4-4.2-8.4-13.5-35-8.5-100.9zM790 219.2c-61.6 50.6-84.5 49.9-86.9 49.6-30.1-3.1-64.2-15.2-92.2-29.8 3.8-0.1 7.6-0.4 11.4-0.7 46.3-4.1 73.6-22.9 95.7-38 17.5-12.1 30.2-20.8 51-23 17.7-1.9 36.4 1.9 55.9 11.2-10.1 9.4-22.1 20.1-34.9 30.7z" p-id="11221" fill="#3a6247"></path></svg>