<svg xmlns="http://www.w3.org/2000/svg" viewBox="0 0 64 64" fill="none">
  <!-- 手掌轮廓 - 代表按摩/揉腹 -->
  <!-- 手掌 -->
  <path d="M20 28c-2 0-4 2-4 4v16c0 2 2 4 4 4h2v-8c0-2 2-4 4-4h4c2 0 4 2 4 4v8h2c2 0 4-2 4-4V32c0-2-2-4-4-4h-16z" stroke="#4A7C59" stroke-width="2.5" fill="none"/>
  <!-- 手指 -->
  <path d="M16 24c0-2 2-4 4-4s4 2 4 4" stroke="#4A7C59" stroke-width="2" fill="none"/>
  <path d="M24 20c0-2 2-4 4-4s4 2 4 4" stroke="#4A7C59" stroke-width="2" fill="none"/>
  <path d="M32 20c0-2 2-4 4-4s4 2 4 4" stroke="#4A7C59" stroke-width="2" fill="none"/>
  <path d="M40 24c0-2 2-4 4-4s4 2 4 4" stroke="#4A7C59" stroke-width="2" fill="none"/>
  <!-- 掌心圆点 - 穴位 -->
  <circle cx="32" cy="38" r="3" fill="#4A7C59"/>
</svg>
