<?xml version="1.0" standalone="no"?><!DOCTYPE svg PUBLIC "-//W3C//DTD SVG 1.1//EN" "http://www.w3.org/Graphics/SVG/1.1/DTD/svg11.dtd"><svg t="1774677619632" class="icon" viewBox="0 0 1024 1024" version="1.1" xmlns="http://www.w3.org/2000/svg" p-id="4651" xmlns:xlink="http://www.w3.org/1999/xlink" width="200" height="200"><path d="M954.195168 830.742485C954.156282 830.710762 954.136839 830.77523 954.195168 830.742485 954.184935 830.733275 954.195168 830.742485 954.195168 830.742485z" p-id="4652" fill="#3a6247"></path><path d="M905.715013 779.3807c0.26913 0.277316 0.558725 0.576121 0.862647 0.889253C906.288065 779.972171 905.999492 779.673365 905.715013 779.3807z" p-id="4653" fill="#3a6247"></path><path d="M906.57766 780.269953c0.983397 1.014096 1.974981 2.036379 2.803859 2.891863C908.312164 782.059716 907.385049 781.102924 906.57766 780.269953z" p-id="4654" fill="#3a6247"></path><path d="M911.220401 785.058003c-0.112564-0.115634-0.274246-0.282433-0.465604-0.479931C910.908292 784.736685 911.060765 784.89325 911.220401 785.058003z" p-id="4655" fill="#3a6247"></path><path d="M910.754796 784.578072c-0.239454-0.24764-0.530073-0.546446-0.86674-0.893346C910.169465 783.974321 910.459061 784.273127 910.754796 784.578072z" p-id="4656" fill="#3a6247"></path><path d="M904.521838 778.149663c0.353041 0.364297 0.753153 0.776689 1.194198 1.231037C905.301598 778.953981 904.899438 778.539542 904.521838 778.149663z" p-id="4657" fill="#3a6247"></path><path d="M903.534348 777.131473c0.284479 0.293689 0.608867 0.62831 0.98749 1.01819C904.166751 777.783319 903.834176 777.440511 903.534348 777.131473z" p-id="4658" fill="#3a6247"></path><path d="M902.149814 775.703961C902.001435 775.551488 902.012691 775.562744 902.149814 775.703961L902.149814 775.703961z" p-id="4659" fill="#3a6247"></path><path d="M902.294101 775.85234c0.095167 0.098237 0.217964 0.225127 0.372483 0.38374C902.519228 776.084631 902.392338 775.953647 902.294101 775.85234z" p-id="4660" fill="#3a6247"></path><path d="M902.666584 776.237103c0.236384 0.24457 0.531096 0.547469 0.867764 0.895393C903.176191 776.762059 902.888642 776.465301 902.666584 776.237103z" p-id="4661" fill="#3a6247"></path><path d="M9.93528 720.609155c18.179035 25.430182 41.701774 28.870538 75.384921 20.850887 56.530504-13.459546 59.603493-20.192901 113.574708-37.405935-25.939789 39.424918-62.546521 68.572772-111.420649 69.538773 4.886287 9.209756 47.719838-7.105838 57.768705-9.53619-1.813299 6.477528-13.278421 16.002462-15.09172 22.481014 15.267728-12.737092 29.29214-28.415167 48.456618-34.008558 14.947434-4.362354 29.599132-9.738805 43.799552-16.129352 32.168654-14.477736 61.785182-34.195823 88.004333-57.760518 0.946558 3.412726 1.89414 6.825452 2.840698 10.238179 9.836019-28.198226 35.814694-35.358299 62.444191-40.158628-10.974959 16.493649-3.830235 28.110221-17.758456 47.935756-12.971429 18.46249-31.883151 31.447223-51.957349 41.158399C279.44241 750.649332 257.089309 761.977331 228.04788 769.189593c-11.242042 2.791579-70.745251 13.320377-65.847707 26.368554 52.399417-19.203364 112.191198-22.12081 161.240311-49.184189 23.725354-13.090133 44.367487-31.134091 61.446467-52.103682 13.500479-16.575514 25.486464-31.558763 49.166793-24.457018-33.308617 31.879058-63.685461 67.004043-95.611591 100.274798-28.66997 29.877471-83.33294 36.681434-121.004935 50.359968 17.346063-5.53404 32.704866-2.403746 50.603515-9.803273 11.889795-4.915963 24.88476-6.39464 36.634362-11.713786 32.584116-14.748912 46.788629-32.305777 70.310346-58.096163 6.858198 17.668405 4.572132 26.462698-4.51585 41.030485 19.840884-15.544021 7.922437-34.06791 19.034519-52.079122 8.66024-14.037714 25.50079-26.547633 37.083593-38.335097 11.530614-11.734252 36.648688-35.019585 54.734602-17.783015 26.216081 24.985044-18.8493 44.289716-30.309306 54.376445-26.559912 23.376407-50.132794 53.635571-60.690244 87.816045 12.20702-28.463262 30.596855-53.769624 53.187363-74.884524 12.415774-11.604292 25.964348-21.954011 40.151465-31.29168 12.435217-8.184403 24.960485-20.551058 19.252483 3.094478-5.056156 20.945031-10.093892 41.897226-15.539928 62.745043-1.424442 5.453199-23.344684 9.924024-27.572986 11.756765-25.667589 11.128455-48.752354 27.684526-64.177672 51.378158 23.861454-26.643823 53.493332-46.106084 88.965218-52.939723-1.362021 4.600785-12.297071 34.062793-8.356318 35.521005 2.735297-7.636934 26.15366-67.00916 37.626969-63.837934-5.421476 20.644179-6.091742 45.63741-20.911262 62.443168-8.097422 9.182127-23.081695 9.247618-29.795607 19.24839 4.657067-0.822738 9.315156-1.645476 13.972223-2.468215-1.039679 5.213745-2.080382 10.428513-3.120061 15.642259 12.05557-6.856152 8.257058-28.941146 27.866674-17.535375 8.41567-33.912367 26.269293-65.524342 25.270547-102.397135-0.994654-36.791951 57.17928-40.769542 80.169901-38.822191-11.18883 36.769438-40.410362 60.736293-70.638827 82.063017 6.593162-1.246387 13.186324-2.492774 19.779486-3.739161-3.706415 4.956895-26.25599 30.246885-22.415522 34.279734 19.186991-26.318412 42.391483-44.246737 64.441685-67.481927 23.072485-24.311709 19.314904-46.480614 57.643861-50.241264 1.020236 32.988322-22.273283 54.692646-41.756009 78.087473 12.388145-11.223622 22.457478-19.927865 35.369555-30.535457 0.916882 3.834328 7.996115 28.856211 11.489682 28.64234-2.576685-16.363689-13.178137-37.565571 3.886517-48.251957 1.497097 3.78214 6.042623 22.353101 10.929934 21.568225-4.324492-23.404036-15.46932-42.910299 6.708795-59.874669 24.718985-18.906605 48.126091-38.838563 71.765487-59.09491 0.230244 25.110911-14.492062 46.477544-16.626679 71.043033 3.947915-9.623171 15.97995-36.96182 20.931728-48.8905 1.509377 6.237051 11.932774 38.702464 17.234523 37.432541-6.072299-26.15366-22.811542-61.628616-6.680143-86.587054 16.817014-26.019607 33.260521-53.151547 40.057321-83.753519 6.445806-29.018917 3.211135-59.092863-8.587586-86.307691-5.310959-12.249999-12.43931-19.886933-9.880021-33.661657 0.648776-3.493567 2.76395-10.1645 4.571109-17.175171 16.366759-26.083052 40.48097-47.565319 68.976978-53.141314 0 31.836079 0 63.672158 0 95.508237 15.013949-15.545044 63.71616-40.946574 50.732451-109.761869 39.797401 4.780887 64.919569 4.38896 98.897428-21.348214-29.531594-23.01211-45.662992-45.303812-89.376587-48.332798 27.321252-47.621601 23.337521-44.686758 41.116443-94.783737-51.118238-9.003048-77.996398 42.425252-89.864704 75.529207-18.212804-33.104979-37.009915-68.163449-72.828702-84.987626 10.879792 34.469046 28.805046 102.093213 27.226085 114.629737-18.234293-6.986111-69.567425-21.12718-77.904301-20.774139 0 0 36.356023 71.845305 85.695754 85.262896-10.700713 12.815887-29.479405 37.375236-40.180118 50.191122 0.855484-6.493901 0.354064-11.660574-3.318582-12.603039-1.342578 5.805216-2.684132 11.610432-4.02671 17.414625-9.394974-1.597381-14.873756 6.924713-10.665921-24.421202l3.613294-29.463032-7.481392 0-3.130294 14.244422c-2.336208 12.691043-3.791349 21.37482-4.941546 29.28907-10.831696-13.261025-21.662369-26.52205-32.494065-39.783075 32.076556-6.599302 52.850695-36.46347 52.850695-36.46347-8.881274 0.683569-31.16172-7.357572-51.398624-0.349971 1.194198-12.634762-1.402953-29.514197-10.260691-46.079478-12.06171-22.559808-15.508205-2.460028-20.564361 8.884344-4.929266 11.057847-9.530051 18.501376-10.723226 33.6811-12.383028-14.319124-30.505781-46.778396-51.770084-48.338938 6.65149 27.799136 3.518127 61.281715 32.443923 77.191056-14.328333 12.290931-28.655643 24.582885-42.983977 36.873816 6.013971 11.836583 32.743752 4.351098 44.227294 1.329275 19.235087-5.061272 10.508331 9.514701 15.650445 25.88146 3.701299 11.780301 7.910157 21.528316 11.610432 33.308617 7.851828-26.79118 28.616758-34.80776 18.98233-79.357396 16.993023 11.993149 34.669614 26.469861 42.85811 44.949748-0.983397 7.910157-1.949398 16.660448-3.463891 29.435403-0.357134 3.013637-0.232291 6.682189 0.054235 10.665921-54.880935 21.12411-73.752748 65.001433-109.464087 109.297288-19.780509 24.535813-38.34533 40.09416-69.487607 47.3801-23.596418 5.520737-46.772256 9.277294-68.792782 20.045545-25.074072 12.261255-42.265616 34.411741-66.539462 47.248094-27.785833 14.69263-53.92005 4.990664-83.269495 7.582699-29.108968 2.571568-54.035684 25.072025-83.194794 31.667234-14.228049 3.218298-28.658713 6.052856-42.209334 11.628852-8.358365 3.439332-19.6045-4.617158-27.79095-5.448082 5.065366 2.405793 9.199523 6.879688 14.264888 9.28548-32.1707 23.984251-74.676793 30.300097-111.726617 12.565177 2.176572 3.131317 4.353145 6.261611 6.529717 9.392928-21.894659 0-43.790342 0-65.685002 0 0.061398 6.830569 86.289272 5.666046 98.741885 5.666046-25.844621 8.982582-53.807487 21.951965-89.007173 23.418362C26.969235 736.648456 35.607986 727.658711 9.93528 720.609155zM228.437759 692.408883c10.640338-5.550413 74.099648-30.772864 77.526701-22.039969-33.29429 45.01831-96.821139 62.922075-145.80783 85.188194 0.209778-4.212952 8.398274-8.185426 10.340509-11.916401C188.413184 725.163891 205.210755 704.525851 228.437759 692.408883zM8.451486 737.3924c0.138146 0.016373 0.25992 0.029676 0.367367 0.041956C8.715499 737.423099 8.591679 737.408773 8.451486 737.3924z" fill="#3a6247" p-id="4662"></path></svg>