<svg xmlns="http://www.w3.org/2000/svg" viewBox="0 0 64 64" fill="none">
  <!-- 月亮形状 -->
  <path d="M36 8c-16 0-28 12-28 28s12 28 28 28c4 0 8-1 11-2-10-6-17-18-17-31s7-25 17-31c-3-1-7-2-11-2z" stroke="#4A7C59" stroke-width="2.5" fill="none"/>
  <!-- 月亮内部的星星 -->
  <path d="M24 20l2 4 4 1-3 3 1 4-4-2-4 2 1-4-3-3 4-1 2-4z" stroke="#4A7C59" stroke-width="1.5" fill="none"/>
  <circle cx="42" cy="28" r="1.5" fill="#4A7C59"/>
  <circle cx="36" cy="38" r="1" fill="#4A7C59"/>
  <!-- 睡眠曲线 - Zzz -->
  <path d="M48 12l4-4 4 4M52 8v8" stroke="#4A7C59" stroke-width="2" stroke-linecap="round" stroke-linejoin="round"/>
</svg>
