<svg xmlns="http://www.w3.org/2000/svg" viewBox="0 0 24 24" fill="none" stroke="#4A7C59" stroke-width="1.5" stroke-linecap="round" stroke-linejoin="round">
  <!-- 茶杯杯身 -->
  <path d="M6 8h10c1.5 0 3 1 3 3v7c0 1-.5 2-1.5 2H5c-1 0-1.5-1-1.5-2V11c0-2 1.5-3 3-3z"/>
  <!-- 茶杯把手 -->
  <path d="M16 10c1 0 2 .5 2 1.5s-1 2-2 2"/>
  <!-- 茶杯盖/边缘 -->
  <path d="M5 8c0-1 1.5-2 3.5-2h7c2 0 3.5 1 3.5 2"/>
  <!-- 茶杯内的液体 -->
  <path d="M7 8c0 .5.5 1 1.5 1h7c1 0 1.5-.5 1.5-1"/>
  <!-- 热气1 -->
  <path d="M9 4c0-1 .5-1.5 1-1.5s1 .5 1 1.5c0 .5-.3 1-.8 1.2"/>
  <!-- 热气2 -->
  <path d="M12 3c0-1 .5-1.5 1-1.5s1 .5 1 1.5c0 .5-.3 1-.8 1.2"/>
  <!-- 热气3 -->
  <path d="M15 4c0-1 .5-1.5 1-1.5s1 .5 1 1.5c0 .5-.3 1-.8 1.2"/>
  <!-- 茶叶/甘草叶装饰 -->
  <path d="M10 10c.5-.5 1-.5 1.5 0s1 .5 1.5 0" />
</svg>